<svg width="234" height="30" viewBox="0 0 234 30" fill="none" xmlns="http://www.w3.org/2000/svg">
<g clip-path="url(#clip0_9_2)">
<rect width="234" height="30" fill="white"/>
<path d="M2.21094 2.91602C3.48828 2.97461 4.57227 3.02148 5.46289 3.05664C6.35352 3.08008 7.14453 3.0918 7.83594 3.0918C8.33984 3.0918 8.97852 3.08008 9.75195 3.05664C10.5254 3.02148 11.5918 2.97461 12.9512 2.91602V4.49805C12.166 4.49805 11.5918 4.56836 11.2285 4.70898C10.8652 4.83789 10.6836 5.05469 10.6836 5.35938C10.6836 5.78125 10.918 6.41406 11.3867 7.25781C11.5156 7.49219 11.6152 7.67383 11.6855 7.80273L15.5703 14.7461L16.748 12.707C19.2324 8.39453 20.4746 5.98047 20.4746 5.46484C20.4746 5.125 20.3398 4.87891 20.0703 4.72656C19.8008 4.57422 19.3789 4.49805 18.8047 4.49805H18.418V2.91602C19.4492 2.97461 20.2871 3.02148 20.9316 3.05664C21.5879 3.08008 22.1387 3.0918 22.584 3.0918C23.0527 3.0918 23.6211 3.08008 24.2891 3.05664C24.9688 3.02148 25.8184 2.97461 26.8379 2.91602V4.44531C26.791 4.44531 26.7383 4.44531 26.6797 4.44531C26.6211 4.43359 26.5332 4.42773 26.416 4.42773C25.2793 4.42773 23.9141 5.72852 22.3203 8.33008C21.9688 8.92773 21.6875 9.39062 21.4766 9.71875L16.7656 17.2773L16.8008 22.9023C16.8242 24.4023 17.0117 25.3691 17.3633 25.8027C17.7148 26.2363 18.4004 26.4531 19.4199 26.4531C19.4902 26.4531 19.6074 26.4473 19.7715 26.4355C19.9355 26.4238 20.0586 26.418 20.1406 26.418V28C18.8516 27.9297 17.7031 27.877 16.6953 27.8418C15.6875 27.8066 14.832 27.7891 14.1289 27.7891C13.4961 27.7891 12.2305 27.8301 10.332 27.9121C9.53516 27.9473 8.9082 27.9766 8.45117 28V26.418C8.54492 26.418 8.67383 26.4238 8.83789 26.4355C9.01367 26.4473 9.13672 26.4531 9.20703 26.4531C10.2383 26.4531 10.9355 26.2246 11.2988 25.7676C11.6738 25.3105 11.873 24.3789 11.8965 22.9727L11.9316 17.418L6.06055 7.5918C5.97852 7.45117 5.85547 7.24609 5.69141 6.97656C4.67188 5.30078 3.68164 4.46289 2.7207 4.46289C2.5918 4.46289 2.48633 4.46875 2.4043 4.48047C2.33398 4.48047 2.26953 4.48047 2.21094 4.48047V2.91602ZM33.4297 12.3379C31.9883 12.3379 30.8691 12.877 30.0723 13.9551C29.2871 15.0215 28.8945 16.5332 28.8945 18.4902C28.8945 20.8691 29.3457 22.7559 30.248 24.1504C31.1504 25.5449 32.3633 26.2422 33.8867 26.2422C35.3398 26.2422 36.4824 25.6797 37.3145 24.5547C38.1582 23.4297 38.5801 21.8887 38.5801 19.9316C38.5801 17.5996 38.1113 15.7539 37.1738 14.3945C36.248 13.0234 35 12.3379 33.4297 12.3379ZM33.7812 10.0352C36.5352 10.0352 38.791 10.8848 40.5488 12.584C42.3066 14.2715 43.1855 16.4102 43.1855 19C43.1855 21.7188 42.2656 23.9922 40.4258 25.8203C38.5977 27.6367 36.3125 28.5449 33.5703 28.5449C30.8281 28.5449 28.5898 27.6895 26.8555 25.9785C25.1211 24.2676 24.2539 22.0762 24.2539 19.4043C24.2539 16.7793 25.1797 14.5645 27.0312 12.7598C28.8945 10.9434 31.1445 10.0352 33.7812 10.0352ZM54.6289 12.3379C53.1875 12.3379 52.0684 12.877 51.2715 13.9551C50.4863 15.0215 50.0938 16.5332 50.0938 18.4902C50.0938 20.8691 50.5449 22.7559 51.4473 24.1504C52.3496 25.5449 53.5625 26.2422 55.0859 26.2422C56.5391 26.2422 57.6816 25.6797 58.5137 24.5547C59.3574 23.4297 59.7793 21.8887 59.7793 19.9316C59.7793 17.5996 59.3105 15.7539 58.373 14.3945C57.4473 13.0234 56.1992 12.3379 54.6289 12.3379ZM54.9805 10.0352C57.7344 10.0352 59.9902 10.8848 61.748 12.584C63.5059 14.2715 64.3848 16.4102 64.3848 19C64.3848 21.7188 63.4648 23.9922 61.625 25.8203C59.7969 27.6367 57.5117 28.5449 54.7695 28.5449C52.0273 28.5449 49.7891 27.6895 48.0547 25.9785C46.3203 24.2676 45.4531 22.0762 45.4531 19.4043C45.4531 16.7793 46.3789 14.5645 48.2305 12.7598C50.0938 10.9434 52.3438 10.0352 54.9805 10.0352ZM73.2266 10L72.9453 12.8828C74.3516 11.875 75.5527 11.1426 76.5488 10.6855C77.5449 10.2285 78.4297 10 79.2031 10C81.043 10 82.4258 10.5391 83.3516 11.6172C84.2891 12.6836 84.7578 14.2656 84.7578 16.3633C84.7578 16.7617 84.7461 17.6875 84.7227 19.1406C84.6992 20.582 84.6875 21.8301 84.6875 22.8848C84.6875 24.6074 84.8105 25.6445 85.0566 25.9961C85.3145 26.3477 85.8242 26.5234 86.5859 26.5234H86.9551L86.9199 28C85.877 27.9297 84.9863 27.877 84.248 27.8418C83.5098 27.8066 82.9121 27.7891 82.4551 27.7891C81.9629 27.7891 81.3535 27.8066 80.627 27.8418C79.9121 27.877 79.0801 27.9297 78.1309 28V26.5234H78.3418C79.7949 26.5234 80.5391 25.0586 80.5742 22.1289C80.5742 22.0352 80.5742 21.9648 80.5742 21.918V18.209C80.5742 16.1816 80.3398 14.8164 79.8711 14.1133C79.4023 13.4102 78.6055 13.0586 77.4805 13.0586C76.8711 13.0586 76.2148 13.1875 75.5117 13.4453C74.8086 13.6914 74.0352 14.0781 73.1914 14.6055C73.1445 15.6602 73.1094 16.7559 73.0859 17.8926C73.0625 19.0293 73.0508 20.248 73.0508 21.5488V22.9902C73.0508 24.5723 73.1738 25.5566 73.4199 25.9434C73.6777 26.3301 74.1816 26.5234 74.9316 26.5234H75.2129V28C74.2285 27.9297 73.3672 27.877 72.6289 27.8418C71.8906 27.8066 71.2637 27.7891 70.748 27.7891C70.2441 27.7891 69.623 27.8066 68.8848 27.8418C68.1465 27.877 67.291 27.9297 66.3184 28V26.5234H66.7227C68.1758 26.5234 68.9141 25.0527 68.9375 22.1113C68.9375 21.7598 68.9434 21.4902 68.9551 21.3027L68.9902 17.6641V16.1172C68.9902 14.793 68.8848 13.9375 68.6738 13.5508C68.4746 13.1523 68.0996 12.9531 67.5488 12.9531C67.4434 12.9531 67.209 12.9707 66.8457 13.0059C66.7754 13.0176 66.7227 13.0234 66.6875 13.0234L66.582 11.6523C67.5547 11.5 68.5801 11.2891 69.6582 11.0195C70.7363 10.75 71.9258 10.4102 73.2266 10ZM112.549 3.70703C112.561 4.73828 112.619 5.76367 112.725 6.7832C112.83 7.79102 112.977 8.79297 113.164 9.78906L111.389 10.1406C111.084 8.47656 110.299 7.22266 109.033 6.37891C107.779 5.52344 106.068 5.0957 103.9 5.0957C100.982 5.0957 98.7148 5.96289 97.0977 7.69727C95.4922 9.43164 94.6895 11.8691 94.6895 15.0098C94.6895 18.3496 95.5625 21.0156 97.3086 23.0078C99.0664 24.9883 101.398 25.9785 104.305 25.9785C104.961 25.9785 105.605 25.9199 106.238 25.8027C106.883 25.6738 107.521 25.4805 108.154 25.2227C108.166 24.6953 108.178 24.0039 108.189 23.1484C108.213 22.2812 108.225 21.7363 108.225 21.5137C108.225 19.8027 108.02 18.7363 107.609 18.3145C107.199 17.8809 106.303 17.6641 104.92 17.6641H104.41V16.0996C105.629 16.1582 106.66 16.1992 107.504 16.2227C108.348 16.2461 109.115 16.2578 109.807 16.2578C110.557 16.2578 111.377 16.2461 112.268 16.2227C113.158 16.1992 114.248 16.1582 115.537 16.0996V17.6641H115.027C114.102 17.6641 113.492 17.875 113.199 18.2969C112.906 18.7188 112.76 19.8906 112.76 21.8125V23.5352C112.76 24.1797 112.771 24.8008 112.795 25.3984C112.818 25.9961 112.854 26.5879 112.9 27.1738C110.135 27.7832 108.096 28.1816 106.783 28.3691C105.471 28.5566 104.281 28.6504 103.215 28.6504C99.0195 28.6504 95.6504 27.4668 93.1074 25.0996C90.5645 22.7324 89.293 19.5977 89.293 15.6953C89.293 11.6992 90.6699 8.4707 93.4238 6.00977C96.1895 3.53711 99.8047 2.30078 104.27 2.30078C105.652 2.30078 107.035 2.41797 108.418 2.65234C109.812 2.88672 111.189 3.23828 112.549 3.70703ZM123.887 10.123C123.805 12.209 123.74 14.0957 123.693 15.7832C123.658 17.4707 123.641 18.877 123.641 20.002C123.641 22.041 123.881 23.4648 124.361 24.2734C124.842 25.082 125.645 25.4863 126.77 25.4863C127.332 25.4863 127.965 25.3574 128.668 25.0996C129.371 24.8418 130.127 24.4668 130.936 23.9746C130.971 22.2988 130.994 20.875 131.006 19.7031C131.029 18.5312 131.041 17.5996 131.041 16.9082V16.1172C131.041 14.6641 130.912 13.7559 130.654 13.3926C130.396 13.0293 129.904 12.8477 129.178 12.8477C129.049 12.8477 128.92 12.8535 128.791 12.8652C128.662 12.8652 128.527 12.8711 128.387 12.8828L128.281 11.4766C129.512 11.3594 130.713 11.2188 131.885 11.0547C133.057 10.8906 134.205 10.6973 135.33 10.4746C135.248 13.1934 135.189 15.2617 135.154 16.6797C135.131 18.0859 135.119 19.3984 135.119 20.6172V22.2344C135.119 23.7578 135.213 24.7188 135.4 25.1172C135.588 25.5039 135.963 25.6973 136.525 25.6973C136.666 25.6973 136.818 25.6855 136.982 25.6621C137.158 25.6387 137.34 25.6035 137.527 25.5566L137.703 26.998L130.971 28.5098V25.8027C129.623 26.7871 128.469 27.4844 127.508 27.8945C126.547 28.3047 125.615 28.5098 124.713 28.5098C122.955 28.5098 121.643 27.9648 120.775 26.875C119.92 25.7734 119.492 24.1094 119.492 21.8828C119.492 21.4141 119.492 21.0273 119.492 20.7227C119.504 20.418 119.516 20.1133 119.527 19.8086L119.598 17.418C119.598 17.1836 119.604 16.8848 119.615 16.5215C119.627 16.1465 119.633 15.8828 119.633 15.7305C119.633 14.5703 119.533 13.791 119.334 13.3926C119.135 12.9824 118.777 12.7773 118.262 12.7773C118.039 12.7773 117.729 12.7949 117.33 12.8301C117.283 12.8418 117.248 12.8477 117.225 12.8477L117.119 11.4062C118.232 11.2656 119.352 11.0898 120.477 10.8789C121.602 10.6562 122.738 10.4043 123.887 10.123ZM146.562 10L146.281 12.8828C147.688 11.875 148.889 11.1426 149.885 10.6855C150.881 10.2285 151.766 10 152.539 10C154.379 10 155.762 10.5391 156.688 11.6172C157.625 12.6836 158.094 14.2656 158.094 16.3633C158.094 16.7617 158.082 17.6875 158.059 19.1406C158.035 20.582 158.023 21.8301 158.023 22.8848C158.023 24.6074 158.146 25.6445 158.393 25.9961C158.65 26.3477 159.16 26.5234 159.922 26.5234H160.291L160.256 28C159.213 27.9297 158.322 27.877 157.584 27.8418C156.846 27.8066 156.248 27.7891 155.791 27.7891C155.299 27.7891 154.689 27.8066 153.963 27.8418C153.248 27.877 152.416 27.9297 151.467 28V26.5234H151.678C153.131 26.5234 153.875 25.0586 153.91 22.1289C153.91 22.0352 153.91 21.9648 153.91 21.918V18.209C153.91 16.1816 153.676 14.8164 153.207 14.1133C152.738 13.4102 151.941 13.0586 150.816 13.0586C150.207 13.0586 149.551 13.1875 148.848 13.4453C148.145 13.6914 147.371 14.0781 146.527 14.6055C146.48 15.6602 146.445 16.7559 146.422 17.8926C146.398 19.0293 146.387 20.248 146.387 21.5488V22.9902C146.387 24.5723 146.51 25.5566 146.756 25.9434C147.014 26.3301 147.518 26.5234 148.268 26.5234H148.549V28C147.564 27.9297 146.703 27.877 145.965 27.8418C145.227 27.8066 144.6 27.7891 144.084 27.7891C143.58 27.7891 142.959 27.8066 142.221 27.8418C141.482 27.877 140.627 27.9297 139.654 28V26.5234H140.059C141.512 26.5234 142.25 25.0527 142.273 22.1113C142.273 21.7598 142.279 21.4902 142.291 21.3027L142.326 17.6641V16.1172C142.326 14.793 142.221 13.9375 142.01 13.5508C141.811 13.1523 141.436 12.9531 140.885 12.9531C140.779 12.9531 140.545 12.9707 140.182 13.0059C140.111 13.0176 140.059 13.0234 140.023 13.0234L139.918 11.6523C140.891 11.5 141.916 11.2891 142.994 11.0195C144.072 10.75 145.262 10.4102 146.562 10ZM173.457 2.91602C174.453 2.97461 175.391 3.02148 176.27 3.05664C177.16 3.08008 177.951 3.0918 178.643 3.0918C179.357 3.0918 180.154 3.08008 181.033 3.05664C181.924 3.02148 182.949 2.97461 184.109 2.91602V4.49805C184.039 4.49805 183.939 4.49219 183.811 4.48047C183.682 4.46875 183.594 4.46289 183.547 4.46289C182.562 4.46289 181.895 4.75586 181.543 5.3418C181.191 5.92773 181.016 7.25195 181.016 9.31445C181.016 9.61914 181.021 10.1699 181.033 10.9668C181.045 11.7637 181.051 12.4141 181.051 12.918L181.086 25.2578L181.191 25.2754C182.703 25.3691 183.846 25.416 184.619 25.416C187.561 25.416 189.488 25.1113 190.402 24.502C191.316 23.8926 192.066 22.7324 192.652 21.0215L194.27 21.5137C193.906 22.5801 193.578 23.6523 193.285 24.7305C193.004 25.8086 192.758 26.8984 192.547 28C190.473 27.9297 188.545 27.877 186.764 27.8418C184.982 27.8066 183.354 27.7891 181.877 27.7891C180.412 27.7891 178.936 27.8066 177.447 27.8418C175.971 27.877 174.5 27.9297 173.035 28V26.4531H173.527C174.16 26.4531 174.646 26.3887 174.986 26.2598C175.326 26.1309 175.572 25.9199 175.725 25.627C176.053 24.9824 176.229 22.5742 176.252 18.4023C176.264 17.8633 176.27 17.4531 176.27 17.1719L176.305 13.3398C176.305 12.8242 176.311 12.1504 176.322 11.3184C176.334 10.4746 176.34 9.88867 176.34 9.56055C176.34 7.45117 176.164 6.07422 175.812 5.42969C175.473 4.78516 174.822 4.46289 173.861 4.46289H173.457V2.91602ZM211.83 18.6309L204.5 18.6484C203.246 18.6484 202.309 18.6602 201.688 18.6836C201.066 18.6953 200.492 18.7305 199.965 18.7891C199.965 20.8867 200.48 22.5332 201.512 23.7285C202.555 24.9238 203.99 25.5215 205.818 25.5215C206.697 25.5215 207.564 25.3867 208.42 25.1172C209.287 24.8359 210.16 24.4141 211.039 23.8516L211.83 25.3633C210.471 26.4414 209.135 27.25 207.822 27.7891C206.51 28.3164 205.209 28.5801 203.92 28.5801C201.471 28.5801 199.461 27.7656 197.891 26.1367C196.32 24.4961 195.535 22.3926 195.535 19.8262C195.535 17.0371 196.385 14.7109 198.084 12.8477C199.783 10.9727 201.869 10.0352 204.342 10.0352C206.557 10.0352 208.35 10.8203 209.721 12.3906C211.092 13.9492 211.795 16.0293 211.83 18.6309ZM207.664 16.4863C207.418 15.1152 206.967 14.0488 206.311 13.2871C205.666 12.5137 204.893 12.127 203.99 12.127C202.912 12.127 202.021 12.543 201.318 13.375C200.615 14.207 200.176 15.373 200 16.873H201.107C202.549 16.873 203.803 16.8438 204.869 16.7852C205.936 16.7148 206.867 16.6152 207.664 16.4863ZM230.92 18.6309L223.59 18.6484C222.336 18.6484 221.398 18.6602 220.777 18.6836C220.156 18.6953 219.582 18.7305 219.055 18.7891C219.055 20.8867 219.57 22.5332 220.602 23.7285C221.645 24.9238 223.08 25.5215 224.908 25.5215C225.787 25.5215 226.654 25.3867 227.51 25.1172C228.377 24.8359 229.25 24.4141 230.129 23.8516L230.92 25.3633C229.561 26.4414 228.225 27.25 226.912 27.7891C225.6 28.3164 224.299 28.5801 223.01 28.5801C220.561 28.5801 218.551 27.7656 216.98 26.1367C215.41 24.4961 214.625 22.3926 214.625 19.8262C214.625 17.0371 215.475 14.7109 217.174 12.8477C218.873 10.9727 220.959 10.0352 223.432 10.0352C225.646 10.0352 227.439 10.8203 228.811 12.3906C230.182 13.9492 230.885 16.0293 230.92 18.6309ZM226.754 16.4863C226.508 15.1152 226.057 14.0488 225.4 13.2871C224.756 12.5137 223.982 12.127 223.08 12.127C222.002 12.127 221.111 12.543 220.408 13.375C219.705 14.207 219.266 15.373 219.09 16.873H220.197C221.639 16.873 222.893 16.8438 223.959 16.7852C225.025 16.7148 225.957 16.6152 226.754 16.4863Z" fill="black"/>
</g>
<defs>
<clipPath id="clip0_9_2">
<rect width="234" height="30" fill="white"/>
</clipPath>
</defs>
</svg>
